<?xml version="1.0" encoding="iso-8859-1"?>
<!-- Uploaded to: SVG Repo, www.svgrepo.com, Generator: SVG Repo Mixer Tools -->
<svg version="1.1" id="Layer_1" xmlns="http://www.w3.org/2000/svg" xmlns:xlink="http://www.w3.org/1999/xlink" 
	 viewBox="0 0 511.983 511.983" xml:space="preserve">
<rect x="405.31" y="236.758" style="fill:#E9573F;" width="21.327" height="179.23"/>
<g>
	<rect x="85.32" y="129.198" style="fill:#DA4453;" width="21.335" height="158.79"/>
	<polygon style="fill:#DA4453;" points="298.645,129.193 298.645,266.658 319.989,266.658 319.989,111.616 	"/>
</g>
<polygon style="fill:#ED5564;" points="85.323,171.223 319.989,128.616 319.989,42.665 85.323,85.272 "/>
<g>
	<polygon style="fill:#FC6E51;" points="405.315,298.751 405.315,192.098 511.983,245.426 	"/>
	<circle style="fill:#FC6E51;" cx="373.32" cy="415.987" r="53.33"/>
</g>
<g>
	<path style="fill:#ED5564;" d="M213.319,266.658c0-29.452,23.883-53.342,53.335-53.342c29.46,0,53.335,23.89,53.335,53.342
		s-23.875,53.327-53.335,53.327C237.202,319.985,213.319,296.11,213.319,266.658z"/>
	<circle style="fill:#ED5564;" cx="53.33" cy="287.988" r="53.33"/>
</g>
</svg>